<?xml version="1.0" encoding="UTF-8" standalone="no"?>
<!DOCTYPE svg PUBLIC "-//W3C//DTD SVG 1.1//EN" "http://www.w3.org/Graphics/SVG/1.1/DTD/svg11.dtd">
<svg xmlns="http://www.w3.org/2000/svg" version="1.1" viewBox="0.00 0.00 450.00 456.00">
<g stroke-width="2.00" fill="none" stroke-linecap="butt">
<path stroke="#ccf2f7" vector-effect="non-scaling-stroke" d="
  M 436.57 201.25
  Q 434.69 198.89 434.19 196.60
  Q 427.09 164.05 410.77 139.21
  Q 396.63 117.71 384.90 105.36
  Q 377.56 97.65 361.75 85.84"
/>
<path stroke="#c4eff7" vector-effect="non-scaling-stroke" d="
  M 361.75 85.84
  C 359.86 83.98 358.03 82.17 355.75 80.78
  Q 345.00 74.27 340.55 71.72
  Q 324.25 62.34 302.17 56.40
  Q 268.26 47.29 234.93 53.70"
/>
<path stroke="#b9eff3" vector-effect="non-scaling-stroke" d="
  M 234.93 53.70
  L 216.55 57.88"
/>
<path stroke="#abe7f1" vector-effect="non-scaling-stroke" d="
  M 216.55 57.88
  Q 215.01 58.12 214.15 58.63"
/>
<path stroke="#c4eff7" vector-effect="non-scaling-stroke" d="
  M 214.15 58.63
  Q 212.20 56.36 209.72 55.55
  Q 202.79 53.28 197.24 52.56
  C 181.42 50.52 165.42 49.70 150.03 51.93
  Q 136.54 53.89 126.88 56.43
  Q 118.56 58.62 104.60 64.78
  Q 103.01 65.49 99.75 65.97"
/>
<path stroke="#b9eff3" vector-effect="non-scaling-stroke" d="
  M 99.75 65.97
  Q 113.68 47.75 131.98 34.12
  C 137.10 30.30 142.65 27.38 147.45 24.17
  Q 153.21 20.33 159.46 17.39
  Q 178.30 8.53 194.31 5.11
  Q 207.42 2.32 211.51 1.06"
/>
<path stroke="#a5e8f1" vector-effect="non-scaling-stroke" d="
  M 99.75 65.97
  L 89.18 80.50"
/>
<path stroke="#8ddaec" vector-effect="non-scaling-stroke" d="
  M 89.18 80.50
  L 75.56 80.55"
/>
<path stroke="#ace6f1" vector-effect="non-scaling-stroke" d="
  M 75.56 80.55
  C 79.32 74.65 83.87 68.68 87.83 63.62
  Q 90.62 60.05 94.01 56.76
  Q 103.76 47.30 106.95 44.42
  C 110.97 40.80 115.24 38.57 118.83 35.60
  Q 121.69 33.23 127.89 29.20
  Q 131.47 26.87 138.49 21.89
  A 6.15 6.08 -73.4 0 1 139.75 21.20
  L 148.64 17.58
  A 0.55 0.31 -61.0 0 0 148.72 17.53
  C 150.49 15.99 152.23 15.91 154.29 14.71
  C 161.26 10.63 169.75 10.09 175.97 5.64"
/>
<path stroke="#9fd7f0" vector-effect="non-scaling-stroke" d="
  M 75.56 80.55
  C 69.78 88.65 66.21 96.43 61.35 106.30
  Q 56.36 116.41 53.27 127.23
  Q 50.09 138.37 47.91 151.22
  Q 40.50 194.95 54.17 237.57"
/>
<path stroke="#a9dcf2" vector-effect="non-scaling-stroke" d="
  M 54.17 237.57
  Q 51.33 249.23 50.47 258.00
  Q 49.36 269.36 49.74 284.26
  C 50.29 306.07 56.28 327.38 65.04 347.27
  A 0.40 0.40 0.0 0 1 64.42 347.73
  Q 28.92 317.39 12.64 274.45
  Q 7.95 262.09 5.00 245.66
  Q 2.40 231.21 1.08 216.10"
/>
<path stroke="#98e0ef" vector-effect="non-scaling-stroke" d="
  M 214.15 58.63
  Q 207.62 60.63 202.63 62.89
  C 196.79 65.54 189.17 69.36 182.67 73.81
  Q 182.27 74.09 172.46 80.23
  Q 164.33 85.32 156.78 92.52
  Q 143.80 104.92 132.33 119.74
  C 128.48 124.72 125.14 130.61 121.83 136.21"
/>
<path stroke="#a2def2" vector-effect="non-scaling-stroke" d="
  M 121.83 136.21
  Q 111.13 142.23 102.92 151.18
  Q 91.93 163.13 81.60 177.39
  C 76.95 183.81 72.96 190.79 69.35 197.62
  Q 67.84 200.48 64.70 202.07"
/>
<path stroke="#98d9f0" vector-effect="non-scaling-stroke" d="
  M 64.70 202.07
  Q 62.13 184.55 63.05 167.01
  Q 63.28 162.59 63.53 158.03
  Q 63.80 153.22 64.44 149.10
  Q 67.73 127.91 73.61 111.88
  Q 78.63 98.18 89.18 80.50"
/>
<path stroke="#b9eaf5" vector-effect="non-scaling-stroke" d="
  M 361.75 85.84
  L 374.81 110.52"
/>
<path stroke="#b4edf4" vector-effect="non-scaling-stroke" d="
  M 374.81 110.52
  Q 372.61 111.08 371.02 109.68
  C 365.23 104.58 361.30 101.02 356.07 97.77
  Q 345.47 91.19 335.00 85.63
  C 320.53 77.95 303.45 73.65 287.19 71.07
  C 275.17 69.16 263.73 69.81 250.48 70.45"
/>
<path stroke="#a5e8f1" vector-effect="non-scaling-stroke" d="
  M 250.48 70.45
  Q 243.55 61.50 234.93 53.70"
/>
<path stroke="#a9eef0" vector-effect="non-scaling-stroke" d="
  M 250.48 70.45
  L 248.83 70.58
  A 0.37 0.37 0.0 0 0 248.66 71.27
  Q 262.63 80.06 274.49 89.26
  Q 278.45 92.33 279.65 93.61
  Q 294.50 109.53 296.42 111.33
  C 300.35 115.01 305.47 117.77 309.44 121.84"
/>
<path stroke="#83e2eb" vector-effect="non-scaling-stroke" d="
  M 309.44 121.84
  Q 297.23 113.32 283.50 107.76
  Q 277.34 105.27 273.28 103.32
  Q 266.13 99.88 257.50 98.50
  Q 255.46 98.18 251.73 98.90
  A 0.17 0.17 0.0 0 0 251.71 99.23
  Q 260.66 102.30 270.93 107.09
  Q 276.75 109.80 281.08 112.92
  Q 287.38 117.45 295.26 124.55"
/>
<path stroke="#91e4ed" vector-effect="non-scaling-stroke" d="
  M 295.26 124.55
  L 304.64 133.78
  A 2.38 2.21 9.2 0 1 304.89 134.10
  C 306.53 136.55 308.69 138.27 310.20 140.70
  Q 312.66 144.65 314.97 148.83
  Q 315.08 149.03 315.00 149.76"
/>
<path stroke="#8de0eb" vector-effect="non-scaling-stroke" d="
  M 122.09 154.52
  Q 124.17 148.14 126.95 144.44
  Q 130.02 140.35 142.89 124.74
  C 150.53 115.48 159.18 107.77 167.59 102.11
  Q 176.79 95.93 191.47 87.72
  Q 200.90 82.45 210.67 79.38
  C 222.00 75.82 234.51 72.28 246.37 70.65
  A 0.34 0.33 58.1 0 0 246.51 70.04
  Q 245.44 69.30 243.92 68.63
  C 234.95 64.66 226.14 59.95 216.55 57.88"
/>
<path stroke="#89d7ec" vector-effect="non-scaling-stroke" d="
  M 103.20 211.22
  L 102.91 210.70
  A 0.41 0.41 0.0 0 0 102.14 210.84
  L 101.56 214.87
  A 0.17 0.17 0.0 0 1 101.39 215.02
  L 101.38 215.02
  A 0.23 0.23 0.0 0 1 101.16 214.79
  C 101.10 209.73 101.33 205.08 102.00 196.93
  Q 102.60 189.66 104.07 183.51
  Q 106.80 172.11 110.67 160.50
  C 113.27 152.70 118.05 144.31 121.83 136.21"
/>
<path stroke="#bcf0f3" vector-effect="non-scaling-stroke" d="
  M 374.81 110.52
  L 375.52 112.56"
/>
<path stroke="#c7f5f6" vector-effect="non-scaling-stroke" d="
  M 375.52 112.56
  Q 381.32 127.61 384.97 142.03
  C 388.45 155.81 389.71 172.30 389.17 186.22
  C 388.82 194.92 387.45 204.74 386.65 213.58
  Q 386.56 214.56 384.70 217.18"
/>
<path stroke="#92e8ed" vector-effect="non-scaling-stroke" d="
  M 384.70 217.18
  C 376.59 196.47 366.87 177.60 352.55 160.94
  C 342.64 149.41 334.24 139.80 324.00 132.67
  C 318.47 128.83 314.70 126.25 309.44 121.84"
/>
<path stroke="#89d0ec" vector-effect="non-scaling-stroke" d="
  M 64.70 202.07
  L 66.12 209.76"
/>
<path stroke="#6fc5e8" vector-effect="non-scaling-stroke" d="
  M 66.12 209.76
  C 62.49 210.98 60.81 215.39 59.44 219.01
  Q 57.49 224.16 54.26 237.36"
/>
<path stroke="#89d0ec" vector-effect="non-scaling-stroke" d="
  M 54.26 237.36
  Q 54.22 237.46 54.17 237.57"
/>
<path stroke="#aeebf1" vector-effect="non-scaling-stroke" d="
  M 394.83 366.44
  L 378.76 348.46"
/>
<path stroke="#a5e7f1" vector-effect="non-scaling-stroke" d="
  M 378.76 348.46
  Q 379.34 347.61 379.30 347.32"
/>
<path stroke="#97e5ee" vector-effect="non-scaling-stroke" d="
  M 379.30 347.32
  Q 397.07 306.32 393.98 261.77"
/>
<path stroke="#ccf2f7" vector-effect="non-scaling-stroke" d="
  M 393.98 261.77
  Q 410.74 248.13 422.53 231.44
  Q 426.30 226.09 433.14 215.04
  A 1.24 1.20 56.5 0 0 433.30 214.19
  Q 431.20 201.14 426.16 186.26
  C 421.60 172.82 414.20 159.13 407.02 148.57
  Q 402.24 141.53 392.69 129.08
  Q 385.49 119.69 375.52 112.56"
/>
<path stroke="#a2e9f1" vector-effect="non-scaling-stroke" d="
  M 384.70 217.18
  C 385.46 220.36 386.84 223.95 387.55 226.45
  Q 392.48 243.82 393.98 261.77"
/>
<path stroke="#7adeeb" vector-effect="non-scaling-stroke" d="
  M 379.30 347.32
  L 369.21 337.38"
/>
<path stroke="#83e2eb" vector-effect="non-scaling-stroke" d="
  M 369.21 337.38
  Q 368.90 335.12 370.46 329.23
  Q 372.88 320.10 375.76 299.94
  Q 376.68 293.49 376.46 285.50
  Q 376.40 283.44 376.38 271.00
  Q 376.37 260.64 373.98 250.03"
/>
<path stroke="#7adeeb" vector-effect="non-scaling-stroke" d="
  M 373.98 250.03
  Q 371.93 238.61 370.73 234.78
  C 368.28 226.93 366.04 218.12 363.09 210.91
  Q 356.66 195.14 349.85 183.16
  C 347.44 178.91 344.09 174.53 341.25 169.81
  Q 338.94 165.97 334.70 160.67
  C 328.48 152.90 323.31 147.71 316.94 140.82
  Q 314.57 138.25 311.01 135.71
  Q 309.74 134.81 304.94 130.81
  Q 300.49 127.11 295.26 124.55"
/>
<path stroke="#91e4ed" vector-effect="non-scaling-stroke" d="
  M 373.98 250.03
  Q 370.58 255.74 367.83 261.58
  C 364.85 267.88 361.92 273.23 358.30 277.81
  Q 342.81 297.41 341.95 298.45
  Q 341.02 299.59 339.79 301.71
  A 0.88 0.88 0.0 0 1 338.40 301.89
  L 329.46 292.84"
/>
<path stroke="#78d6e9" vector-effect="non-scaling-stroke" d="
  M 329.46 292.84
  Q 330.77 290.63 331.15 289.18
  Q 332.63 283.48 335.29 271.86
  C 337.13 263.80 337.27 255.01 338.01 248.77
  A 0.26 0.26 0.0 0 0 337.78 248.48
  L 337.51 248.44
  A 0.39 0.39 0.0 0 0 337.06 248.78
  Q 336.25 254.96 333.74 260.56"
/>
<path stroke="#89d0ec" vector-effect="non-scaling-stroke" d="
  M 196.60 358.66
  L 196.55 359.55"
/>
<path stroke="#79caea" vector-effect="non-scaling-stroke" d="
  M 196.55 359.55
  Q 177.90 355.44 162.79 345.96
  Q 160.80 344.71 154.09 339.97
  Q 151.10 337.86 149.40 337.22
  Q 147.63 336.56 144.42 334.70
  Q 140.12 332.22 130.46 324.02
  Q 126.70 320.82 120.93 315.33
  Q 105.61 300.76 96.68 285.86
  C 92.23 278.43 87.56 271.08 83.72 263.31
  Q 71.12 237.77 66.12 209.76"
/>
<path stroke="#6fc5e8" vector-effect="non-scaling-stroke" d="
  M 196.55 359.55
  Q 198.22 360.04 199.60 361.09
  A 0.17 0.17 0.0 0 1 199.49 361.39
  Q 187.47 360.97 173.44 356.23
  Q 153.16 349.38 139.45 342.33"
/>
<path stroke="#79caea" vector-effect="non-scaling-stroke" d="
  M 139.45 342.33
  Q 135.51 339.40 124.33 331.93
  C 111.14 323.13 98.65 310.26 87.37 296.91
  Q 80.94 289.30 78.05 284.98
  Q 67.11 268.63 58.42 249.61
  Q 56.79 246.06 54.26 237.36"
/>
<path stroke="#89d0ec" vector-effect="non-scaling-stroke" d="
  M 139.45 342.33
  Q 149.36 351.48 158.95 360.99
  Q 166.80 368.76 172.47 372.99
  Q 181.62 379.80 192.43 386.14"
/>
<path stroke="#79caea" vector-effect="non-scaling-stroke" d="
  M 192.43 386.14
  Q 182.40 387.84 174.95 387.75
  Q 152.87 387.48 129.61 381.89
  Q 116.28 378.69 104.47 372.99
  Q 99.37 370.53 87.76 364.46
  Q 82.49 361.71 69.09 351.41
  Q 68.15 350.69 67.30 349.99
  A 0.45 0.45 0.0 0 0 66.62 350.55
  L 78.70 373.28"
/>
<path stroke="#a2d7f0" vector-effect="non-scaling-stroke" d="
  M 78.70 373.28
  L 76.22 372.29"
/>
<path stroke="#a9dcf2" vector-effect="non-scaling-stroke" d="
  M 76.22 372.29
  Q 61.79 361.05 57.67 357.09
  Q 54.27 353.82 45.22 343.28
  Q 37.84 334.68 33.68 328.61
  Q 16.99 304.25 8.76 278.04
  Q 4.48 264.43 2.33 247.35
  C 2.08 245.36 1.40 243.06 0.82 241.03"
/>
<path stroke="#b7def3" vector-effect="non-scaling-stroke" d="
  M 76.22 372.29
  Q 79.30 376.97 80.40 378.11
  Q 89.00 386.98 89.15 387.15
  Q 91.74 390.01 96.74 396.57
  Q 102.31 403.89 111.88 411.71
  Q 123.47 421.19 126.59 423.38
  Q 155.67 443.79 190.09 451.76
  Q 192.34 452.29 194.33 453.98"
/>
<path stroke="#81dae9" vector-effect="non-scaling-stroke" d="
  M 329.46 292.84
  L 324.86 288.80"
/>
<path stroke="#95ddec" vector-effect="non-scaling-stroke" d="
  M 324.86 288.80
  Q 325.97 286.56 325.43 285.47"
/>
<path stroke="#91e4ed" vector-effect="non-scaling-stroke" d="
  M 369.21 337.38
  L 360.96 354.57
  A 1.02 1.02 0.0 0 1 360.25 355.12
  L 329.32 361.26"
/>
<path stroke="#81dae9" vector-effect="non-scaling-stroke" d="
  M 329.32 361.26
  Q 316.88 346.97 304.75 332.50
  Q 301.93 329.15 298.70 327.68"
/>
<path stroke="#a5e1ef" vector-effect="non-scaling-stroke" d="
  M 298.70 327.68
  L 299.60 326.53"
/>
<path stroke="#aeebf1" vector-effect="non-scaling-stroke" d="
  M 299.60 326.53
  Q 314.73 311.44 322.55 292.55
  Q 322.92 291.64 324.86 288.80"
/>
<path stroke="#b9e3f3" vector-effect="non-scaling-stroke" d="
  M 299.60 326.53
  Q 292.56 320.22 285.30 314.04
  C 281.14 310.49 277.37 308.28 272.80 305.44
  Q 253.62 293.49 231.54 290.34
  C 227.38 289.74 223.01 289.97 218.90 289.68
  C 213.45 289.30 209.66 289.33 206.94 285.04"
/>
<path stroke="#8cd3eb" vector-effect="non-scaling-stroke" d="
  M 298.70 327.68
  L 288.12 337.39"
/>
<path stroke="#98d2ee" vector-effect="non-scaling-stroke" d="
  M 288.12 337.39
  Q 284.37 339.81 280.81 342.55
  Q 274.73 347.25 261.09 353.81"
/>
<path stroke="#78d6e9" vector-effect="non-scaling-stroke" d="
  M 329.32 361.26
  L 353.73 388.72"
/>
<path stroke="#81dae9" vector-effect="non-scaling-stroke" d="
  M 353.73 388.72
  L 364.42 399.28"
/>
<path stroke="#74d2e7" vector-effect="non-scaling-stroke" d="
  M 364.42 399.28
  Q 361.71 402.96 357.32 406.07
  Q 351.50 410.20 343.43 416.67
  Q 336.35 422.35 328.19 425.60"
/>
<path stroke="#8cd3eb" vector-effect="non-scaling-stroke" d="
  M 328.19 425.60
  L 323.06 420.92"
/>
<path stroke="#74cce7" vector-effect="non-scaling-stroke" d="
  M 323.06 420.92
  L 322.71 419.84"
/>
<path stroke="#63c5e5" vector-effect="non-scaling-stroke" d="
  M 322.71 419.84
  Q 327.73 417.08 331.98 413.23
  C 339.29 406.58 345.32 400.71 350.96 392.95
  A 0.42 0.41 -60.7 0 0 350.79 392.32
  Q 345.83 390.22 340.34 390.88
  A 1.06 1.06 0.0 0 0 339.60 391.33
  C 334.44 398.98 328.08 405.17 321.22 411.35
  C 319.92 412.51 318.88 414.02 317.91 415.48"
/>
<path stroke="#74cce7" vector-effect="non-scaling-stroke" d="
  M 317.91 415.48
  L 317.41 414.65"
/>
<path stroke="#8cd3eb" vector-effect="non-scaling-stroke" d="
  M 317.41 414.65
  L 305.18 400.84"
/>
<path stroke="#7ed1e9" vector-effect="non-scaling-stroke" d="
  M 305.18 400.84
  Q 290.50 385.14 277.03 368.58"
/>
<path stroke="#63c5e5" vector-effect="non-scaling-stroke" d="
  M 277.03 368.58
  L 266.89 358.26"
/>
<path stroke="#74cce7" vector-effect="non-scaling-stroke" d="
  M 266.89 358.26
  Q 274.76 351.48 282.84 345.11
  Q 286.14 342.50 288.12 337.39"
/>
<path stroke="#6fc5e8" vector-effect="non-scaling-stroke" d="
  M 266.89 358.26
  Q 258.22 363.48 249.27 368.51
  Q 243.17 371.94 236.65 374.42
  Q 213.71 383.14 192.43 386.14"
/>
<path stroke="#91e4ed" vector-effect="non-scaling-stroke" d="
  M 378.76 348.46
  Q 371.17 365.83 360.24 381.23
  Q 357.68 384.84 353.73 388.72"
/>
<path stroke="#8de0eb" vector-effect="non-scaling-stroke" d="
  M 448.78 425.41
  Q 445.63 424.09 441.63 424.93
  C 429.89 427.38 419.58 425.85 406.92 422.90
  Q 399.01 421.05 392.49 417.62
  C 383.15 412.70 375.81 409.45 369.24 403.51
  Q 365.52 400.15 364.42 399.28"
/>
<path stroke="#79caea" vector-effect="non-scaling-stroke" d="
  M 277.03 368.58
  Q 270.26 374.19 268.26 375.52
  Q 261.58 379.96 247.80 387.79
  Q 235.35 394.85 221.73 398.95"
/>
<path stroke="#87cceb" vector-effect="non-scaling-stroke" d="
  M 221.73 398.95
  C 200.12 405.11 178.35 408.02 156.20 404.54
  C 138.74 401.80 123.25 398.14 108.36 390.94
  Q 100.57 387.16 89.60 381.41
  Q 83.97 378.46 78.70 373.28"
/>
<path stroke="#a2d7f0" vector-effect="non-scaling-stroke" d="
  M 305.18 400.84
  Q 297.01 403.69 285.08 405.00
  Q 253.76 408.44 227.26 400.45
  Q 225.58 399.95 224.08 399.10
  A 1.59 1.58 58.6 0 0 223.22 398.89
  L 221.73 398.95"
/>
<path stroke="#98d2ee" vector-effect="non-scaling-stroke" d="
  M 317.41 414.65
  Q 311.68 421.11 304.27 425.49
  Q 298.42 428.95 290.27 434.22
  Q 282.37 439.33 273.12 442.83
  Q 266.44 445.36 254.16 449.20
  Q 253.44 449.42 245.33 451.20
  C 240.08 452.34 235.58 453.80 229.42 454.20
  A 0.27 0.26 -2.4 0 0 229.17 454.46
  L 229.17 454.47
  A 0.23 0.22 -88.7 0 0 229.38 454.70
  Q 236.04 455.27 238.27 454.61
  Q 240.24 454.04 242.82 453.89
  A 1.86 0.03 -3.3 0 0 244.50 453.77
  Q 248.46 453.11 250.54 452.85
  C 255.68 452.22 258.60 451.12 263.21 450.30
  Q 265.17 449.95 269.73 448.32
  Q 283.54 443.39 297.48 436.94
  Q 302.54 434.61 304.47 433.23
  Q 313.85 426.57 321.52 421.23
  Q 321.84 421.01 323.06 420.92"
/>
<path stroke="#98d9ed" vector-effect="non-scaling-stroke" d="
  M 328.19 425.60
  Q 329.05 426.50 328.97 426.96"
/>
<path stroke="#6fc5e8" vector-effect="non-scaling-stroke" d="
  M 322.71 419.84
  Q 319.62 418.38 317.91 415.48"
/>
</g>
<g fill="#7fd8e9">
<path d="
  M 216.55 57.88
  C 226.14 59.95 234.95 64.66 243.92 68.63
  Q 245.44 69.30 246.51 70.04
  A 0.34 0.33 58.1 0 1 246.37 70.65
  C 234.51 72.28 222.00 75.82 210.67 79.38
  Q 200.90 82.45 191.47 87.72
  Q 176.79 95.93 167.59 102.11
  C 159.18 107.77 150.53 115.48 142.89 124.74
  Q 130.02 140.35 126.95 144.44
  Q 124.17 148.14 122.09 154.52
  Q 121.17 156.37 120.09 158.13
  C 119.36 159.34 119.35 160.34 118.59 161.27
  Q 117.92 162.09 117.25 163.50
  Q 111.71 175.03 109.33 182.53
  Q 105.32 195.17 103.20 211.22
  L 102.91 210.70
  A 0.41 0.41 0.0 0 0 102.14 210.84
  L 101.56 214.87
  A 0.17 0.17 0.0 0 1 101.39 215.02
  L 101.38 215.02
  A 0.23 0.23 0.0 0 1 101.16 214.79
  C 101.10 209.73 101.33 205.08 102.00 196.93
  Q 102.60 189.66 104.07 183.51
  Q 106.80 172.11 110.67 160.50
  C 113.27 152.70 118.05 144.31 121.83 136.21
  C 125.14 130.61 128.48 124.72 132.33 119.74
  Q 143.80 104.92 156.78 92.52
  Q 164.33 85.32 172.46 80.23
  Q 182.27 74.09 182.67 73.81
  C 189.17 69.36 196.79 65.54 202.63 62.89
  Q 207.62 60.63 214.15 58.63
  Q 215.01 58.12 216.55 57.88
  Z"
/>
<path d="
  M 448.78 425.41
  Q 447.46 427.28 445.89 428.63
  C 441.32 432.56 435.57 437.43 429.70 440.56
  Q 418.43 446.57 408.28 449.23
  Q 406.14 449.79 401.18 450.36
  C 394.69 451.10 389.79 451.64 382.68 451.46
  Q 376.60 451.31 371.46 450.04
  Q 357.41 446.56 345.07 439.91
  Q 341.01 437.72 328.97 426.96
  Q 329.05 426.50 328.19 425.60
  Q 336.35 422.35 343.43 416.67
  Q 351.50 410.20 357.32 406.07
  Q 361.71 402.96 364.42 399.28
  Q 365.52 400.15 369.24 403.51
  C 375.81 409.45 383.15 412.70 392.49 417.62
  Q 399.01 421.05 406.92 422.90
  C 419.58 425.85 429.89 427.38 441.63 424.93
  Q 445.63 424.09 448.78 425.41
  Z"
/>
</g>
<g fill="#b0e7f5">
<path d="
  M 214.15 58.63
  Q 207.62 60.63 202.63 62.89
  C 196.79 65.54 189.17 69.36 182.67 73.81
  Q 182.27 74.09 172.46 80.23
  Q 164.33 85.32 156.78 92.52
  Q 143.80 104.92 132.33 119.74
  C 128.48 124.72 125.14 130.61 121.83 136.21
  Q 111.13 142.23 102.92 151.18
  Q 91.93 163.13 81.60 177.39
  C 76.95 183.81 72.96 190.79 69.35 197.62
  Q 67.84 200.48 64.70 202.07
  Q 62.13 184.55 63.05 167.01
  Q 63.28 162.59 63.53 158.03
  Q 63.80 153.22 64.44 149.10
  Q 67.73 127.91 73.61 111.88
  Q 78.63 98.18 89.18 80.50
  L 99.75 65.97
  Q 103.01 65.49 104.60 64.78
  Q 118.56 58.62 126.88 56.43
  Q 136.54 53.89 150.03 51.93
  C 165.42 49.70 181.42 50.52 197.24 52.56
  Q 202.79 53.28 209.72 55.55
  Q 212.20 56.36 214.15 58.63
  Z"
/>
<path d="
  M 361.75 85.84
  L 374.81 110.52
  Q 372.61 111.08 371.02 109.68
  C 365.23 104.58 361.30 101.02 356.07 97.77
  Q 345.47 91.19 335.00 85.63
  C 320.53 77.95 303.45 73.65 287.19 71.07
  C 275.17 69.16 263.73 69.81 250.48 70.45
  Q 243.55 61.50 234.93 53.70
  Q 268.26 47.29 302.17 56.40
  Q 324.25 62.34 340.55 71.72
  Q 345.00 74.27 355.75 80.78
  C 358.03 82.17 359.86 83.98 361.75 85.84
  Z"
/>
</g>
<g fill="#d7f6f9">
<path d="
  M 436.57 201.25
  Q 434.69 198.89 434.19 196.60
  Q 427.09 164.05 410.77 139.21
  Q 396.63 117.71 384.90 105.36
  Q 377.56 97.65 361.75 85.84
  C 359.86 83.98 358.03 82.17 355.75 80.78
  Q 345.00 74.27 340.55 71.72
  Q 324.25 62.34 302.17 56.40
  Q 268.26 47.29 234.93 53.70
  L 216.55 57.88
  Q 215.01 58.12 214.15 58.63
  Q 212.20 56.36 209.72 55.55
  Q 202.79 53.28 197.24 52.56
  C 181.42 50.52 165.42 49.70 150.03 51.93
  Q 136.54 53.89 126.88 56.43
  Q 118.56 58.62 104.60 64.78
  Q 103.01 65.49 99.75 65.97
  Q 113.68 47.75 131.98 34.12
  C 137.10 30.30 142.65 27.38 147.45 24.17
  Q 153.21 20.33 159.46 17.39
  Q 178.30 8.53 194.31 5.11
  Q 207.42 2.32 211.51 1.06
  Q 216.92 0.64 222.50 0.95
  Q 222.75 0.96 223.19 1.38
  A 1.16 1.14 -24.7 0 0 224.05 1.69
  Q 228.71 1.41 236.23 2.12
  Q 238.89 2.37 239.26 2.41
  Q 258.09 4.24 270.93 7.84
  Q 279.23 10.17 294.94 15.58
  Q 299.86 17.27 315.49 24.96
  Q 325.36 29.82 334.96 36.41
  Q 352.19 48.24 361.19 56.06
  Q 369.70 63.45 382.39 77.65
  Q 386.34 82.07 388.86 85.86
  C 391.47 89.79 394.91 92.89 397.49 96.91
  Q 408.47 113.97 416.63 130.77
  Q 418.80 135.25 421.23 141.69
  Q 424.68 150.84 425.40 152.81
  Q 432.89 173.44 436.11 197.01
  Q 436.39 199.07 436.57 201.25
  Z"
/>
<path d="
  M 393.98 261.77
  Q 392.48 243.82 387.55 226.45
  C 386.84 223.95 385.46 220.36 384.70 217.18
  Q 386.56 214.56 386.65 213.58
  C 387.45 204.74 388.82 194.92 389.17 186.22
  C 389.71 172.30 388.45 155.81 384.97 142.03
  Q 381.32 127.61 375.52 112.56
  Q 385.49 119.69 392.69 129.08
  Q 402.24 141.53 407.02 148.57
  C 414.20 159.13 421.60 172.82 426.16 186.26
  Q 431.20 201.14 433.30 214.19
  A 1.24 1.20 56.5 0 1 433.14 215.04
  Q 426.30 226.09 422.53 231.44
  Q 410.74 248.13 393.98 261.77
  Z"
/>
</g>
<g fill="#5ebee5">
<path d="
  M 66.12 209.76
  Q 71.12 237.77 83.72 263.31
  C 87.56 271.08 92.23 278.43 96.68 285.86
  Q 105.61 300.76 120.93 315.33
  Q 126.70 320.82 130.46 324.02
  Q 140.12 332.22 144.42 334.70
  Q 147.63 336.56 149.40 337.22
  Q 151.10 337.86 154.09 339.97
  Q 160.80 344.71 162.79 345.96
  Q 177.90 355.44 196.55 359.55
  Q 198.22 360.04 199.60 361.09
  A 0.17 0.17 0.0 0 1 199.49 361.39
  Q 187.47 360.97 173.44 356.23
  Q 153.16 349.38 139.45 342.33
  Q 135.51 339.40 124.33 331.93
  C 111.14 323.13 98.65 310.26 87.37 296.91
  Q 80.94 289.30 78.05 284.98
  Q 67.11 268.63 58.42 249.61
  Q 56.79 246.06 54.26 237.36
  Q 57.49 224.16 59.44 219.01
  C 60.81 215.39 62.49 210.98 66.12 209.76
  Z"
/>
<path d="
  M 192.43 386.14
  Q 213.71 383.14 236.65 374.42
  Q 243.17 371.94 249.27 368.51
  Q 258.22 363.48 266.89 358.26
  L 277.03 368.58
  Q 270.26 374.19 268.26 375.52
  Q 261.58 379.96 247.80 387.79
  Q 235.35 394.85 221.73 398.95
  C 200.12 405.11 178.35 408.02 156.20 404.54
  C 138.74 401.80 123.25 398.14 108.36 390.94
  Q 100.57 387.16 89.60 381.41
  Q 83.97 378.46 78.70 373.28
  L 66.62 350.55
  A 0.45 0.45 0.0 0 1 67.30 349.99
  Q 68.15 350.69 69.09 351.41
  Q 82.49 361.71 87.76 364.46
  Q 99.37 370.53 104.47 372.99
  Q 116.28 378.69 129.61 381.89
  Q 152.87 387.48 174.95 387.75
  Q 182.40 387.84 192.43 386.14
  Z"
/>
<path d="
  M 322.71 419.84
  Q 319.62 418.38 317.91 415.48
  C 318.88 414.02 319.92 412.51 321.22 411.35
  C 328.08 405.17 334.44 398.98 339.60 391.33
  A 1.06 1.06 0.0 0 1 340.34 390.88
  Q 345.83 390.22 350.79 392.32
  A 0.42 0.41 -60.7 0 1 350.96 392.95
  C 345.32 400.71 339.29 406.58 331.98 413.23
  Q 327.73 417.08 322.71 419.84
  Z"
/>
</g>
<g fill="#bee3f5">
<path d="
  M 175.97 5.64
  C 169.75 10.09 161.26 10.63 154.29 14.71
  C 152.23 15.91 150.49 15.99 148.72 17.53
  A 0.55 0.31 -61.0 0 1 148.64 17.58
  L 139.75 21.20
  A 6.15 6.08 -73.4 0 0 138.49 21.89
  Q 131.47 26.87 127.89 29.20
  Q 121.69 33.23 118.83 35.60
  C 115.24 38.57 110.97 40.80 106.95 44.42
  Q 103.76 47.30 94.01 56.76
  Q 90.62 60.05 87.83 63.62
  C 83.87 68.68 79.32 74.65 75.56 80.55
  C 69.78 88.65 66.21 96.43 61.35 106.30
  Q 56.36 116.41 53.27 127.23
  Q 50.09 138.37 47.91 151.22
  Q 40.50 194.95 54.17 237.57
  Q 51.33 249.23 50.47 258.00
  Q 49.36 269.36 49.74 284.26
  C 50.29 306.07 56.28 327.38 65.04 347.27
  A 0.40 0.40 0.0 0 1 64.42 347.73
  Q 28.92 317.39 12.64 274.45
  Q 7.95 262.09 5.00 245.66
  Q 2.40 231.21 1.08 216.10
  Q 3.22 166.97 25.48 123.26
  Q 32.22 110.01 42.52 94.90
  C 60.25 68.90 83.83 47.53 110.53 31.14
  C 116.54 27.45 121.52 25.09 128.80 21.34
  Q 136.68 17.27 148.44 13.46
  A 1.85 1.68 -68.3 0 0 148.93 13.22
  Q 149.77 12.63 151.08 12.61
  A 1.99 1.86 -52.5 0 0 151.69 12.51
  L 158.31 10.34
  A 0.64 0.64 0.0 0 0 158.60 10.16
  Q 159.28 9.46 160.83 9.64
  A 0.89 0.88 20.1 0 0 161.68 9.25
  Q 162.16 8.53 163.81 8.61
  A 1.33 1.32 -64.4 0 0 164.77 8.27
  C 165.94 7.20 167.62 8.02 169.03 7.11
  Q 169.33 6.92 169.48 6.89
  Q 172.72 6.36 175.97 5.64
  Z"
/>
<path d="
  M 76.22 372.29
  Q 79.30 376.97 80.40 378.11
  Q 89.00 386.98 89.15 387.15
  Q 91.74 390.01 96.74 396.57
  Q 102.31 403.89 111.88 411.71
  Q 123.47 421.19 126.59 423.38
  Q 155.67 443.79 190.09 451.76
  Q 192.34 452.29 194.33 453.98
  Q 192.06 453.74 189.99 453.45
  Q 129.94 444.98 83.90 406.60
  C 73.12 397.62 63.42 388.33 54.79 377.62
  Q 46.56 367.40 46.47 367.28
  Q 41.07 360.20 34.59 349.71
  Q 28.26 339.45 24.29 331.17
  Q 10.05 301.46 4.04 269.34
  C 2.87 263.07 2.23 255.57 1.29 248.97
  C 0.94 246.50 1.08 243.70 0.82 241.03
  C 1.40 243.06 2.08 245.36 2.33 247.35
  Q 4.48 264.43 8.76 278.04
  Q 16.99 304.25 33.68 328.61
  Q 37.84 334.68 45.22 343.28
  Q 54.27 353.82 57.67 357.09
  Q 61.79 361.05 76.22 372.29
  Z"
/>
</g>
<g fill="#9ae8ed">
<path d="
  M 211.51 1.06
  Q 207.42 2.32 194.31 5.11
  Q 178.30 8.53 159.46 17.39
  Q 153.21 20.33 147.45 24.17
  C 142.65 27.38 137.10 30.30 131.98 34.12
  Q 113.68 47.75 99.75 65.97
  L 89.18 80.50
  L 75.56 80.55
  C 79.32 74.65 83.87 68.68 87.83 63.62
  Q 90.62 60.05 94.01 56.76
  Q 103.76 47.30 106.95 44.42
  C 110.97 40.80 115.24 38.57 118.83 35.60
  Q 121.69 33.23 127.89 29.20
  Q 131.47 26.87 138.49 21.89
  A 6.15 6.08 -73.4 0 1 139.75 21.20
  L 148.64 17.58
  A 0.55 0.31 -61.0 0 0 148.72 17.53
  C 150.49 15.99 152.23 15.91 154.29 14.71
  C 161.26 10.63 169.75 10.09 175.97 5.64
  Q 179.63 4.53 179.85 4.53
  A 26.80 25.81 38.2 0 0 183.75 4.14
  Q 197.43 1.67 211.51 1.06
  Z"
/>
<path d="
  M 234.93 53.70
  Q 243.55 61.50 250.48 70.45
  L 248.83 70.58
  A 0.37 0.37 0.0 0 0 248.66 71.27
  Q 262.63 80.06 274.49 89.26
  Q 278.45 92.33 279.65 93.61
  Q 294.50 109.53 296.42 111.33
  C 300.35 115.01 305.47 117.77 309.44 121.84
  Q 297.23 113.32 283.50 107.76
  Q 277.34 105.27 273.28 103.32
  Q 266.13 99.88 257.50 98.50
  Q 255.46 98.18 251.73 98.90
  A 0.17 0.17 0.0 0 0 251.71 99.23
  Q 260.66 102.30 270.93 107.09
  Q 276.75 109.80 281.08 112.92
  Q 287.38 117.45 295.26 124.55
  L 304.64 133.78
  A 2.38 2.21 9.2 0 1 304.89 134.10
  C 306.53 136.55 308.69 138.27 310.20 140.70
  Q 312.66 144.65 314.97 148.83
  Q 315.08 149.03 315.00 149.76
  Q 314.25 149.35 314.03 148.97
  Q 305.50 134.60 292.64 123.88
  Q 283.96 116.65 282.94 115.81
  Q 277.72 111.48 268.29 106.96
  Q 267.92 106.78 265.21 105.78
  Q 263.32 105.09 262.19 104.41
  Q 262.18 104.40 260.38 103.75
  Q 258.54 103.09 257.74 102.52
  A 1.25 1.25 0.0 0 0 256.80 102.33
  C 256.18 102.45 255.39 102.14 254.70 101.60
  Q 253.01 100.28 251.15 100.26
  A 1.58 1.57 61.8 0 1 250.27 99.99
  Q 249.20 99.27 245.27 98.22
  Q 225.96 93.05 206.50 95.70
  Q 199.74 96.62 194.45 98.01
  Q 193.07 98.37 192.91 98.42
  Q 178.66 102.60 171.91 106.17
  Q 140.65 122.70 122.09 154.52
  Q 124.17 148.14 126.95 144.44
  Q 130.02 140.35 142.89 124.74
  C 150.53 115.48 159.18 107.77 167.59 102.11
  Q 176.79 95.93 191.47 87.72
  Q 200.90 82.45 210.67 79.38
  C 222.00 75.82 234.51 72.28 246.37 70.65
  A 0.34 0.33 58.1 0 0 246.51 70.04
  Q 245.44 69.30 243.92 68.63
  C 234.95 64.66 226.14 59.95 216.55 57.88
  L 234.93 53.70
  Z"
/>
<path d="
  M 373.98 250.03
  Q 376.37 260.64 376.38 271.00
  Q 376.40 283.44 376.46 285.50
  Q 376.68 293.49 375.76 299.94
  Q 372.88 320.10 370.46 329.23
  Q 368.90 335.12 369.21 337.38
  L 360.96 354.57
  A 1.02 1.02 0.0 0 1 360.25 355.12
  L 329.32 361.26
  Q 316.88 346.97 304.75 332.50
  Q 301.93 329.15 298.70 327.68
  L 299.60 326.53
  Q 314.73 311.44 322.55 292.55
  Q 322.92 291.64 324.86 288.80
  L 329.46 292.84
  L 338.40 301.89
  A 0.88 0.88 0.0 0 0 339.79 301.71
  Q 341.02 299.59 341.95 298.45
  Q 342.81 297.41 358.30 277.81
  C 361.92 273.23 364.85 267.88 367.83 261.58
  Q 370.58 255.74 373.98 250.03
  Z"
/>
<path d="
  M 378.76 348.46
  L 394.83 366.44
  Q 400.31 371.14 401.68 372.82
  C 406.29 378.44 410.92 384.05 416.11 389.08
  Q 423.82 396.54 431.06 404.44
  Q 432.35 405.86 448.85 422.41
  Q 450.49 424.06 448.78 425.41
  Q 445.63 424.09 441.63 424.93
  C 429.89 427.38 419.58 425.85 406.92 422.90
  Q 399.01 421.05 392.49 417.62
  C 383.15 412.70 375.81 409.45 369.24 403.51
  Q 365.52 400.15 364.42 399.28
  L 353.73 388.72
  Q 357.68 384.84 360.24 381.23
  Q 371.17 365.83 378.76 348.46
  Z"
/>
</g>
<g fill="#93d5ee">
<path d="
  M 121.83 136.21
  C 118.05 144.31 113.27 152.70 110.67 160.50
  Q 106.80 172.11 104.07 183.51
  Q 102.60 189.66 102.00 196.93
  C 101.33 205.08 101.10 209.73 101.16 214.79
  A 0.23 0.23 0.0 0 0 101.38 215.02
  L 101.39 215.02
  A 0.17 0.17 0.0 0 0 101.56 214.87
  L 102.14 210.84
  A 0.41 0.41 0.0 0 1 102.91 210.70
  L 103.20 211.22
  C 103.28 214.00 102.54 216.99 102.38 219.28
  Q 101.04 239.69 105.69 259.80
  Q 106.14 261.75 109.85 274.63
  Q 110.64 277.37 114.57 286.83
  C 119.58 298.89 126.87 310.13 134.90 320.26
  Q 139.74 326.36 143.84 330.07
  Q 148.81 334.57 154.16 338.40
  Q 154.36 338.54 154.89 338.95
  C 163.83 345.94 174.08 352.18 184.62 355.14
  Q 188.18 356.14 188.30 356.26
  A 1.67 1.63 -24.5 0 0 189.49 356.69
  Q 191.17 356.61 192.38 357.39
  A 1.47 1.42 -28.2 0 0 193.15 357.61
  Q 195.32 357.62 196.60 358.66
  L 196.55 359.55
  Q 177.90 355.44 162.79 345.96
  Q 160.80 344.71 154.09 339.97
  Q 151.10 337.86 149.40 337.22
  Q 147.63 336.56 144.42 334.70
  Q 140.12 332.22 130.46 324.02
  Q 126.70 320.82 120.93 315.33
  Q 105.61 300.76 96.68 285.86
  C 92.23 278.43 87.56 271.08 83.72 263.31
  Q 71.12 237.77 66.12 209.76
  L 64.70 202.07
  Q 67.84 200.48 69.35 197.62
  C 72.96 190.79 76.95 183.81 81.60 177.39
  Q 91.93 163.13 102.92 151.18
  Q 111.13 142.23 121.83 136.21
  Z"
/>
<path d="
  M 54.17 237.57
  Q 54.22 237.46 54.26 237.36
  Q 56.79 246.06 58.42 249.61
  Q 67.11 268.63 78.05 284.98
  Q 80.94 289.30 87.37 296.91
  C 98.65 310.26 111.14 323.13 124.33 331.93
  Q 135.51 339.40 139.45 342.33
  Q 149.36 351.48 158.95 360.99
  Q 166.80 368.76 172.47 372.99
  Q 181.62 379.80 192.43 386.14
  Q 182.40 387.84 174.95 387.75
  Q 152.87 387.48 129.61 381.89
  Q 116.28 378.69 104.47 372.99
  Q 99.37 370.53 87.76 364.46
  Q 82.49 361.71 69.09 351.41
  Q 68.15 350.69 67.30 349.99
  A 0.45 0.45 0.0 0 0 66.62 350.55
  L 78.70 373.28
  L 76.22 372.29
  Q 61.79 361.05 57.67 357.09
  Q 54.27 353.82 45.22 343.28
  Q 37.84 334.68 33.68 328.61
  Q 16.99 304.25 8.76 278.04
  Q 4.48 264.43 2.33 247.35
  C 2.08 245.36 1.40 243.06 0.82 241.03
  L 0.00 230.04
  L 0.00 224.27
  L 1.08 216.10
  Q 2.40 231.21 5.00 245.66
  Q 7.95 262.09 12.64 274.45
  Q 28.92 317.39 64.42 347.73
  A 0.40 0.40 0.0 0 0 65.04 347.27
  C 56.28 327.38 50.29 306.07 49.74 284.26
  Q 49.36 269.36 50.47 258.00
  Q 51.33 249.23 54.17 237.57
  Z"
/>
<path d="
  M 277.03 368.58
  Q 290.50 385.14 305.18 400.84
  Q 297.01 403.69 285.08 405.00
  Q 253.76 408.44 227.26 400.45
  Q 225.58 399.95 224.08 399.10
  A 1.59 1.58 58.6 0 0 223.22 398.89
  L 221.73 398.95
  Q 235.35 394.85 247.80 387.79
  Q 261.58 379.96 268.26 375.52
  Q 270.26 374.19 277.03 368.58
  Z"
/>
</g>
<path fill="#b7f3f2" d="
  M 374.81 110.52
  L 375.52 112.56
  Q 381.32 127.61 384.97 142.03
  C 388.45 155.81 389.71 172.30 389.17 186.22
  C 388.82 194.92 387.45 204.74 386.65 213.58
  Q 386.56 214.56 384.70 217.18
  C 376.59 196.47 366.87 177.60 352.55 160.94
  C 342.64 149.41 334.24 139.80 324.00 132.67
  C 318.47 128.83 314.70 126.25 309.44 121.84
  C 305.47 117.77 300.35 115.01 296.42 111.33
  Q 294.50 109.53 279.65 93.61
  Q 278.45 92.33 274.49 89.26
  Q 262.63 80.06 248.66 71.27
  A 0.37 0.37 0.0 0 1 248.83 70.58
  L 250.48 70.45
  C 263.73 69.81 275.17 69.16 287.19 71.07
  C 303.45 73.65 320.53 77.95 335.00 85.63
  Q 345.47 91.19 356.07 97.77
  C 361.30 101.02 365.23 104.58 371.02 109.68
  Q 372.61 111.08 374.81 110.52
  Z"
/>
<g fill="#68cce4">
<path d="
  M 329.46 292.84
  L 324.86 288.80
  Q 325.97 286.56 325.43 285.47
  Q 330.73 273.36 333.74 260.56
  Q 336.25 254.96 337.06 248.78
  A 0.39 0.39 0.0 0 1 337.51 248.44
  L 337.78 248.48
  A 0.26 0.26 0.0 0 1 338.01 248.77
  C 337.27 255.01 337.13 263.80 335.29 271.86
  Q 332.63 283.48 331.15 289.18
  Q 330.77 290.63 329.46 292.84
  Z"
/>
<path d="
  M 298.70 327.68
  Q 301.93 329.15 304.75 332.50
  Q 316.88 346.97 329.32 361.26
  L 353.73 388.72
  L 364.42 399.28
  Q 361.71 402.96 357.32 406.07
  Q 351.50 410.20 343.43 416.67
  Q 336.35 422.35 328.19 425.60
  L 323.06 420.92
  L 322.71 419.84
  Q 327.73 417.08 331.98 413.23
  C 339.29 406.58 345.32 400.71 350.96 392.95
  A 0.42 0.41 -60.7 0 0 350.79 392.32
  Q 345.83 390.22 340.34 390.88
  A 1.06 1.06 0.0 0 0 339.60 391.33
  C 334.44 398.98 328.08 405.17 321.22 411.35
  C 319.92 412.51 318.88 414.02 317.91 415.48
  L 317.41 414.65
  L 305.18 400.84
  Q 290.50 385.14 277.03 368.58
  L 266.89 358.26
  Q 274.76 351.48 282.84 345.11
  Q 286.14 342.50 288.12 337.39
  L 298.70 327.68
  Z"
/>
</g>
<g fill="#c1edf4">
<path d="
  M 436.57 201.25
  Q 437.57 205.29 437.28 209.79
  Q 437.26 210.09 437.73 210.92
  A 2.47 2.47 0.0 0 1 438.05 212.21
  Q 438.00 213.42 438.59 223.13
  Q 438.95 229.14 438.83 233.86
  Q 437.84 270.62 426.10 304.89
  Q 415.10 337.03 396.11 363.57
  Q 395.40 364.57 394.83 366.44
  L 378.76 348.46
  Q 379.34 347.61 379.30 347.32
  Q 397.07 306.32 393.98 261.77
  Q 410.74 248.13 422.53 231.44
  Q 426.30 226.09 433.14 215.04
  A 1.24 1.20 56.5 0 0 433.30 214.19
  Q 431.20 201.14 426.16 186.26
  C 421.60 172.82 414.20 159.13 407.02 148.57
  Q 402.24 141.53 392.69 129.08
  Q 385.49 119.69 375.52 112.56
  L 374.81 110.52
  L 361.75 85.84
  Q 377.56 97.65 384.90 105.36
  Q 396.63 117.71 410.77 139.21
  Q 427.09 164.05 434.19 196.60
  Q 434.69 198.89 436.57 201.25
  Z"
/>
<path d="
  M 325.43 285.47
  Q 325.97 286.56 324.86 288.80
  Q 322.92 291.64 322.55 292.55
  Q 314.73 311.44 299.60 326.53
  Q 292.56 320.22 285.30 314.04
  C 281.14 310.49 277.37 308.28 272.80 305.44
  Q 253.62 293.49 231.54 290.34
  C 227.38 289.74 223.01 289.97 218.90 289.68
  C 213.45 289.30 209.66 289.33 206.94 285.04
  Q 216.95 277.44 222.15 274.64
  Q 231.87 269.39 243.20 266.43
  Q 251.42 264.29 257.09 264.30
  Q 257.40 264.30 257.86 264.11
  Q 258.34 263.91 258.62 263.89
  Q 286.19 261.97 308.88 276.62
  Q 313.96 279.90 318.39 284.11
  Q 321.46 287.02 325.43 285.47
  Z"
/>
</g>
<g fill="#b0d9f1">
<path d="
  M 206.94 285.04
  C 209.66 289.33 213.45 289.30 218.90 289.68
  C 223.01 289.97 227.38 289.74 231.54 290.34
  Q 253.62 293.49 272.80 305.44
  C 277.37 308.28 281.14 310.49 285.30 314.04
  Q 292.56 320.22 299.60 326.53
  L 298.70 327.68
  L 288.12 337.39
  Q 284.37 339.81 280.81 342.55
  Q 274.73 347.25 261.09 353.81
  L 260.82 352.00
  A 1.32 1.30 21.7 0 0 260.53 351.34
  C 255.00 344.55 248.30 338.41 242.79 332.64
  Q 229.94 319.22 218.76 308.59
  C 212.61 302.74 207.89 297.55 201.73 291.36
  A 0.58 0.58 0.0 0 1 201.72 290.55
  L 206.94 285.04
  Z"
/>
<path d="
  M 78.70 373.28
  Q 83.97 378.46 89.60 381.41
  Q 100.57 387.16 108.36 390.94
  C 123.25 398.14 138.74 401.80 156.20 404.54
  C 178.35 408.02 200.12 405.11 221.73 398.95
  L 223.22 398.89
  A 1.59 1.58 58.6 0 1 224.08 399.10
  Q 225.58 399.95 227.26 400.45
  Q 253.76 408.44 285.08 405.00
  Q 297.01 403.69 305.18 400.84
  L 317.41 414.65
  Q 311.68 421.11 304.27 425.49
  Q 298.42 428.95 290.27 434.22
  Q 282.37 439.33 273.12 442.83
  Q 266.44 445.36 254.16 449.20
  Q 253.44 449.42 245.33 451.20
  C 240.08 452.34 235.58 453.80 229.42 454.20
  A 0.27 0.26 -2.4 0 0 229.17 454.46
  L 229.17 454.47
  A 0.23 0.22 -88.7 0 0 229.38 454.70
  Q 236.04 455.27 238.27 454.61
  Q 240.24 454.04 242.82 453.89
  A 1.86 0.03 -3.3 0 0 244.50 453.77
  Q 248.46 453.11 250.54 452.85
  C 255.68 452.22 258.60 451.12 263.21 450.30
  Q 265.17 449.95 269.73 448.32
  Q 283.54 443.39 297.48 436.94
  Q 302.54 434.61 304.47 433.23
  Q 313.85 426.57 321.52 421.23
  Q 321.84 421.01 323.06 420.92
  L 328.19 425.60
  Q 329.05 426.50 328.97 426.96
  Q 324.34 428.05 319.27 431.25
  Q 312.70 435.40 306.51 438.01
  Q 282.63 448.07 257.90 452.86
  C 256.16 453.20 254.73 453.21 253.29 453.78
  A 2.93 2.63 28.2 0 1 252.51 453.97
  L 231.36 456.00
  L 217.77 456.00
  L 194.33 453.98
  Q 192.34 452.29 190.09 451.76
  Q 155.67 443.79 126.59 423.38
  Q 123.47 421.19 111.88 411.71
  Q 102.31 403.89 96.74 396.57
  Q 91.74 390.01 89.15 387.15
  Q 89.00 386.98 80.40 378.11
  Q 79.30 376.97 76.22 372.29
  L 78.70 373.28
  Z"
/>
</g>
<path fill="#6cdce8" d="
  M 309.44 121.84
  C 314.70 126.25 318.47 128.83 324.00 132.67
  C 334.24 139.80 342.64 149.41 352.55 160.94
  C 366.87 177.60 376.59 196.47 384.70 217.18
  C 385.46 220.36 386.84 223.95 387.55 226.45
  Q 392.48 243.82 393.98 261.77
  Q 397.07 306.32 379.30 347.32
  L 369.21 337.38
  Q 368.90 335.12 370.46 329.23
  Q 372.88 320.10 375.76 299.94
  Q 376.68 293.49 376.46 285.50
  Q 376.40 283.44 376.38 271.00
  Q 376.37 260.64 373.98 250.03
  Q 371.93 238.61 370.73 234.78
  C 368.28 226.93 366.04 218.12 363.09 210.91
  Q 356.66 195.14 349.85 183.16
  C 347.44 178.91 344.09 174.53 341.25 169.81
  Q 338.94 165.97 334.70 160.67
  C 328.48 152.90 323.31 147.71 316.94 140.82
  Q 314.57 138.25 311.01 135.71
  Q 309.74 134.81 304.94 130.81
  Q 300.49 127.11 295.26 124.55
  Q 287.38 117.45 281.08 112.92
  Q 276.75 109.80 270.93 107.09
  Q 260.66 102.30 251.71 99.23
  A 0.17 0.17 0.0 0 1 251.73 98.90
  Q 255.46 98.18 257.50 98.50
  Q 266.13 99.88 273.28 103.32
  Q 277.34 105.27 283.50 107.76
  Q 297.23 113.32 309.44 121.84
  Z"
/>
<g fill="#7fcbea">
<path d="
  M 89.18 80.50
  Q 78.63 98.18 73.61 111.88
  Q 67.73 127.91 64.44 149.10
  Q 63.80 153.22 63.53 158.03
  Q 63.28 162.59 63.05 167.01
  Q 62.13 184.55 64.70 202.07
  L 66.12 209.76
  C 62.49 210.98 60.81 215.39 59.44 219.01
  Q 57.49 224.16 54.26 237.36
  Q 54.22 237.46 54.17 237.57
  Q 40.50 194.95 47.91 151.22
  Q 50.09 138.37 53.27 127.23
  Q 56.36 116.41 61.35 106.30
  C 66.21 96.43 69.78 88.65 75.56 80.55
  L 89.18 80.50
  Z"
/>
<path d="
  M 288.12 337.39
  Q 286.14 342.50 282.84 345.11
  Q 274.76 351.48 266.89 358.26
  Q 258.22 363.48 249.27 368.51
  Q 243.17 371.94 236.65 374.42
  Q 213.71 383.14 192.43 386.14
  Q 181.62 379.80 172.47 372.99
  Q 166.80 368.76 158.95 360.99
  Q 149.36 351.48 139.45 342.33
  Q 153.16 349.38 173.44 356.23
  Q 187.47 360.97 199.49 361.39
  A 0.17 0.17 0.0 0 0 199.60 361.09
  Q 198.22 360.04 196.55 359.55
  L 196.60 358.66
  Q 208.31 361.72 220.27 361.85
  Q 226.68 361.93 234.38 360.65
  Q 241.64 359.44 248.24 357.73
  Q 253.53 356.36 261.09 353.81
  Q 274.73 347.25 280.81 342.55
  Q 284.37 339.81 288.12 337.39
  Z"
/>
<path d="
  M 317.91 415.48
  Q 319.62 418.38 322.71 419.84
  L 323.06 420.92
  Q 321.84 421.01 321.52 421.23
  Q 313.85 426.57 304.47 433.23
  Q 302.54 434.61 297.48 436.94
  Q 283.54 443.39 269.73 448.32
  Q 265.17 449.95 263.21 450.30
  C 258.60 451.12 255.68 452.22 250.54 452.85
  Q 248.46 453.11 244.50 453.77
  A 1.86 0.03 -3.3 0 1 242.82 453.89
  Q 240.24 454.04 238.27 454.61
  Q 236.04 455.27 229.38 454.70
  A 0.23 0.22 -88.7 0 1 229.17 454.47
  L 229.17 454.46
  A 0.27 0.26 -2.4 0 1 229.42 454.20
  C 235.58 453.80 240.08 452.34 245.33 451.20
  Q 253.44 449.42 254.16 449.20
  Q 266.44 445.36 273.12 442.83
  Q 282.37 439.33 290.27 434.22
  Q 298.42 428.95 304.27 425.49
  Q 311.68 421.11 317.41 414.65
  L 317.91 415.48
  Z"
/>
</g>
<g fill="#88e0ed">
<path d="
  M 373.98 250.03
  Q 370.58 255.74 367.83 261.58
  C 364.85 267.88 361.92 273.23 358.30 277.81
  Q 342.81 297.41 341.95 298.45
  Q 341.02 299.59 339.79 301.71
  A 0.88 0.88 0.0 0 1 338.40 301.89
  L 329.46 292.84
  Q 330.77 290.63 331.15 289.18
  Q 332.63 283.48 335.29 271.86
  C 337.13 263.80 337.27 255.01 338.01 248.77
  A 0.26 0.26 0.0 0 0 337.78 248.48
  L 337.51 248.44
  A 0.39 0.39 0.0 0 0 337.06 248.78
  Q 336.25 254.96 333.74 260.56
  L 335.08 250.96
  A 0.20 0.19 88.1 0 1 335.22 250.80
  C 335.69 250.70 335.89 247.39 336.26 245.74
  Q 336.75 243.49 336.91 238.50
  Q 336.96 236.94 337.41 231.51
  Q 337.69 228.22 337.53 224.49
  Q 336.52 200.09 328.13 176.63
  Q 323.61 164.01 317.01 153.22
  A 2.56 0.28 47.1 0 0 316.41 152.41
  Q 315.44 151.24 315.00 149.76
  Q 315.08 149.03 314.97 148.83
  Q 312.66 144.65 310.20 140.70
  C 308.69 138.27 306.53 136.55 304.89 134.10
  A 2.38 2.21 9.2 0 0 304.64 133.78
  L 295.26 124.55
  Q 300.49 127.11 304.94 130.81
  Q 309.74 134.81 311.01 135.71
  Q 314.57 138.25 316.94 140.82
  C 323.31 147.71 328.48 152.90 334.70 160.67
  Q 338.94 165.97 341.25 169.81
  C 344.09 174.53 347.44 178.91 349.85 183.16
  Q 356.66 195.14 363.09 210.91
  C 366.04 218.12 368.28 226.93 370.73 234.78
  Q 371.93 238.61 373.98 250.03
  Z"
/>
<path d="
  M 379.30 347.32
  Q 379.34 347.61 378.76 348.46
  Q 371.17 365.83 360.24 381.23
  Q 357.68 384.84 353.73 388.72
  L 329.32 361.26
  L 360.25 355.12
  A 1.02 1.02 0.0 0 0 360.96 354.57
  L 369.21 337.38
  L 379.30 347.32
  Z"
/>
</g>
</svg>
